<svg width="519" height="541" fill="none" xmlns="http://www.w3.org/2000/svg" viewBox="0 0 519 541"><g clip-path="url(#money-man_svg__a)"><path d="M478.739 121.663c-22.478-36.418-50.99-68.07-76.752-87.84-61.92-47.592-170.611-43.546-232.2 3.254-52.488 39.888-53.049 111.931-95.04 159.235C36.083 239.843.184 276.679.487 336.943 1.12 464.224 168.505 514.509 263.2 453.107c29.894-19.382 51.552-47.52 86.4-58.348 70.819-22.004 98.77-19.944 144.36-75.831 45.014-55.065 24.12-133.488-15.221-197.265z" fill="#DDE5F0"/><path d="M257.094 541.055c39.717 0 71.914-14.036 71.914-31.349 0-17.314-32.197-31.349-71.914-31.349-39.716 0-71.913 14.035-71.913 31.349 0 17.313 32.197 31.349 71.913 31.349z" fill="#DDE5F0"/><path d="M242.493 486.522s-12.312 7.027-15.984 13.665c-3.672 6.639-.231 7.2 7.2 4.579 7.43-2.62 18.331-19.209 18.331-19.209l-9.547.965zm32.227 3.038s-7.92 17.208-8.64 24.984c-.72 7.776 6.595 8.021 10.886 2.765 4.292-5.256 5.328-28.512 5.328-28.512s-6.451 3.038-7.574.763z" fill="#fff" stroke="#263238" stroke-linecap="round" stroke-linejoin="round"/><path d="M220.374 262.04s-10.915 25.704-18.489 46.253c-7.575 20.548-9.317 75.225-8.885 79.531.432 4.306 46.973 97.546 49.493 98.741 2.52 1.195 9.561-.965 9.561-.965L222.88 378.018l14.832-54.058s-4.219 58.81-3.154 64.483c1.066 5.674 38.319 101.779 38.319 101.779s5.213 4.796 8.265 1.599a11.104 11.104 0 0 0 2.578-7.978s-7.834-63.36-8.842-73.44c-1.008-10.08-6.566-31.68-6.566-31.68s22.162-72.187 22.406-79.445c.245-7.257 0-24.364 0-24.364s-56.433-4.234-70.344-12.874z" fill="#263238" stroke="#263238" stroke-linecap="round" stroke-linejoin="round"/><path d="m235.235 331.606-6.293-34.848m3.874 24.682-7.747-11.131" stroke="#fff" stroke-linecap="round" stroke-linejoin="round"/><path d="M283.49 165.56s-6.48-.475-17.05-1.915-23.27-4.32-25.43-.49c-2.16 3.831-21.946 96.48-21.946 100.066 0 3.585 22.666 11.059 37.066 13.939 14.4 2.88 31.68 4.32 33.84 2.405 2.16-1.916 27.835-95.53 28.31-98.165.475-2.635-3.11-5.76-7.2-7.2-4.09-1.44-27.59-8.64-27.59-8.64z" fill="#F7673F" stroke="#263238" stroke-linecap="round" stroke-linejoin="round"/><path d="M297.645 167.72s-15.12 28.325-22.565 48.96c-7.445 20.635-18.95 57.6-23.27 72.72-4.32 15.12-5.04 35.525-3.845 36.965 1.195 1.44 29.765-5.285 39.355-8.885 9.59-3.6 11.29-5.04 12.96-6.955 1.67-1.915-5.99-34.56-4.55-41.76 1.44-7.2 20.39-52.085 24.955-65.52 4.565-13.435 6.955-25.2 3.845-26.165-3.111-.965-21.845-9.605-26.885-9.36z" fill="#fff"/><path opacity=".2" d="m313.341 222.498-6.365-11.866s-40.766 60.48-43.2 63.864c-1.224 1.699-3.283-3.139-5.054-7.963-2.88 9.259-5.343 17.467-6.884 22.867-4.32 15.12-5.04 35.525-3.844 36.965 1.195 1.44 29.764-5.285 39.355-8.885 9.59-3.6 11.289-5.04 12.96-6.955 1.67-1.915-5.991-34.56-4.551-41.76.965-4.997 10.383-28.08 17.583-46.267z" fill="#000"/><path d="m288.026 279.334-26.41 5.271-1.181 4.709 25.819-4.119" stroke="#263238" stroke-linecap="round" stroke-linejoin="round"/><path d="M297.645 167.72s-15.12 28.325-22.565 48.96c-7.445 20.635-18.95 57.6-23.27 72.72-4.32 15.12-5.04 35.525-3.845 36.965 1.195 1.44 29.765-5.285 39.355-8.885 9.59-3.6 11.29-5.04 12.96-6.955 1.67-1.915-5.99-34.56-4.55-41.76 1.44-7.2 20.39-52.085 24.955-65.52 4.565-13.435 6.955-25.2 3.845-26.165-3.111-.965-21.845-9.605-26.885-9.36z" stroke="#263238" stroke-linecap="round" stroke-linejoin="round"/><path d="M271.725 164.84a364.135 364.135 0 0 0-16.805 32.875c-8.395 18.72-20.39 39.125-25.2 48.73a124.747 124.747 0 0 0-7.2 17.51s.245-21.11 1.21-34.07c.964-12.96 2.88-27.13 2.39-30.01-.49-2.88-33.35-6.955-47.275-11.75-13.925-4.795 3.125-22.32 7.92-22.32s29.275 2.16 37.195-1.21c7.92-3.369 9.13-4.795 16.805-4.795 7.675 0 30.96 5.04 30.96 5.04z" fill="#fff"/><path opacity=".2" d="M243.256 221.216c3.672-6.912 7.459-14.4 10.786-21.6l-19.152-6.927-10.181-15.998v13.09l-6.783-9.202-17.942-6.797-19.699-4.061c-5.76 5.458-11.175 15.034-1.44 18.389 13.925 4.796 46.8 8.871 47.275 11.751.302 1.829-.346 8.179-1.123 15.84l18.259 5.515z" fill="#000"/><path d="M271.725 164.84a364.135 364.135 0 0 0-16.805 32.875c-8.395 18.72-20.39 39.125-25.2 48.73a124.747 124.747 0 0 0-7.2 17.51s.245-21.11 1.21-34.07c.964-12.96 2.88-27.13 2.39-30.01-.49-2.88-33.35-6.955-47.275-11.75-13.925-4.795 3.125-22.32 7.92-22.32s29.275 2.16 37.195-1.21c7.92-3.369 9.13-4.795 16.805-4.795 7.675 0 30.96 5.04 30.96 5.04z" stroke="#263238" stroke-linecap="round" stroke-linejoin="round"/><path d="m225.803 183.661.317 16.214-7.358-16.805" stroke="#263238" stroke-linecap="round" stroke-linejoin="round"/><path d="M276.52 159.555s-4.795 1.44-5.515 3.6c-.72 2.16-.965 10.57-3.125 12.73s-9.835 5.99-7.43 6.71c2.404.72 13.91-4.795 13.91-4.795s3.845-12.24 4.565-14.875c.72-2.635-2.405-3.37-2.405-3.37zm4.565 14.645s-2.16 18.475-.475 17.035c1.684-1.44 1.67-4.55 4.32-7.43 2.649-2.88 13.68-9.13 15.35-12.485 1.67-3.355 1.685-8.165.49-9.36a4.494 4.494 0 0 0-2.88-1.195s-15.61 9.36-17.05 9.835c-1.44.475.245 3.6.245 3.6z" fill="#F7673F" stroke="#263238" stroke-linecap="round" stroke-linejoin="round"/><path d="M278.205 151.405s-2.405 10.555-2.88 13.91c-.475 3.355-3.355 20.65-3.355 20.65s8.87-11.765 9.835-12.485c.965-.72 15.595-7.675 16.56-10.08.965-2.405 6.48-17.755 6.48-17.755s-17.035 9.36-26.64 5.76z" fill="#fff" stroke="#263238" stroke-linecap="round" stroke-linejoin="round"/><path d="M282.597 109.803s-8.266 21.254-9.159 27.749c-.892 6.494.893 18.014 8.856 20.664 7.964 2.649 18.893-5.314 21.255-7.675a46.17 46.17 0 0 0 4.723-5.904s8.568-10.628 10.339-14.17c1.771-3.542 7.675-13.291 5.314-20.664-2.362-7.373-18.015-9.446-26.568-8.266-8.554 1.181-14.76 8.266-14.76 8.266z" fill="#fff" stroke="#263238" stroke-linecap="round" stroke-linejoin="round"/><path d="M289.97 126.334s-6.783 2.362-7.373 4.133c-.591 1.771 3.83 4.133 3.83 4.133m-6.782 3.24s1.44 2.664 7.373 2.952a14.907 14.907 0 0 0 9.748-2.952s-4.824 8.28-7.776 10.353a5.845 5.845 0 0 1-5.947.375 13.241 13.241 0 0 0-1.037-5.415l-2.361-5.313z" stroke="#263238" stroke-linecap="round" stroke-linejoin="round"/><path d="M293.44 143.355s-8.208 4.003-11.448-.201" stroke="#263238" stroke-width=".5" stroke-linecap="round" stroke-linejoin="round"/><path d="m295.168 136.846 3.701 1.484" stroke="#263238" stroke-linecap="round" stroke-linejoin="round"/><path d="M281.171 105.08s-7.07 4.838-11.909-3.355c-5.126-8.64 15.696-15.192 36.951-11.362 21.254 3.83 23.04 15.365 21.845 23.328-1.196 7.963-11.218 21.6-11.218 21.6s-1.771 3.24-3.24-.302c-1.469-3.543 1.771-8.266 2.059-9.735.288-1.469-6.494-2.664-5.011-6.206 1.483-3.542 4.421-2.059 2.059-5.602-2.361-3.542-9.158-2.361-19.195-.59-10.037 1.771-19.426-.749-12.341-7.776z" fill="#263238" stroke="#263238" stroke-linecap="round" stroke-linejoin="round"/><path d="M324.342 111.43a5.76 5.76 0 0 1 1.628 4.45m-39.24-15.48s-8.28 4.68-1.8 7.2c6.48 2.52 15.48-6.12 28.08-2.52a27.105 27.105 0 0 1 9.086 4.205m-14.486-8.165s15.84-.36 19.44 7.92m-11.88 8.28s5.76 3.6 6.84 8.64" stroke="#fff" stroke-width=".5" stroke-linecap="round" stroke-linejoin="round"/><path d="m316.97 136.04-6.725-10.901c0-.302.086-.605.115-.921a.719.719 0 0 0-.562-.764l-14.328-3.196a.62.62 0 0 0-.331 0l-4.521-1.44a.707.707 0 0 0-.375-.216l-14.328-3.212a.72.72 0 0 0-.849.519c0 .201-1.34 5.083-.807 7.646.576 2.88 4.479 5.357 8.208 5.357h.087c3.153 0 6.753-2.88 7.92-7.488a3.436 3.436 0 0 1 1.771-.23c.72.129 1.44.979 1.872 1.728a16.151 16.151 0 0 0-.303 5.4c.576 2.88 4.464 5.371 8.208 5.371h.058a8.465 8.465 0 0 0 6.883-4.81l6.408 8.395 1.599-1.238z" fill="#263238"/><path d="M309.971 126.507c-4.665 3.399-8.64 1.08-12.715 0a7.862 7.862 0 0 0-3.542-.23 9.043 9.043 0 0 0 .1 2.117c.576 2.88 4.464 5.371 8.208 5.371h.058a8.465 8.465 0 0 0 6.883-4.81 4.325 4.325 0 0 1 1.008-2.448zm-35.712-2.865c.576 2.88 4.479 5.356 8.208 5.356h.087a8.638 8.638 0 0 0 7.113-5.313 8.834 8.834 0 0 0-1.31.086c-5.76.763-5.299-2.333-10.181-2.333a8.255 8.255 0 0 0-4.046.951c.003.42.047.84.129 1.253z" fill="#F7673F"/><path d="m316.97 136.04-6.725-10.901c0-.302.086-.605.115-.921a.719.719 0 0 0-.562-.764l-14.328-3.196a.62.62 0 0 0-.331 0l-4.521-1.44a.707.707 0 0 0-.375-.216l-14.328-3.212a.72.72 0 0 0-.849.519c0 .201-1.34 5.083-.807 7.646.576 2.88 4.479 5.357 8.208 5.357h.087c3.153 0 6.753-2.88 7.92-7.488a3.436 3.436 0 0 1 1.771-.23c.72.129 1.44.979 1.872 1.728a16.151 16.151 0 0 0-.303 5.4c.576 2.88 4.464 5.371 8.208 5.371h.058a8.465 8.465 0 0 0 6.883-4.81l6.408 8.395 1.599-1.238z" stroke="#263238" stroke-width=".5" stroke-miterlimit="10"/><path d="M309.755 139.021s7.675-8.554 10.08-4.421c2.405 4.133-5.601 10.627-7.963 10.627a8.645 8.645 0 0 1-4.738-2.073" fill="#fff"/><path d="M309.755 139.021s7.675-8.554 10.08-4.421c2.405 4.133-5.601 10.627-7.963 10.627a8.645 8.645 0 0 1-4.738-2.073" stroke="#263238" stroke-linecap="round" stroke-linejoin="round"/><path d="m205.485 190.285 3.845-15.365-6.999-1.238s-2.491 10.9 3.154 16.603z" fill="#fff" stroke="#263238" stroke-linecap="round" stroke-linejoin="round"/><path d="m208.84 185.245 8.41-10.57-7.92.245s-2.16 6.725-.49 10.325z" fill="#fff" stroke="#263238" stroke-linecap="round" stroke-linejoin="round"/><path d="M219.64 165.085s8.165-7.2 12.24-7.69a85.904 85.904 0 0 0 14.645-3.83c2.405-.965 4.521-1.44 3.413.979-1.584 3.413-7.013 4.536-7.013 4.536s12.96-3.355 14.875-2.635c1.915.72.72 2.88-.72 3.6-1.44.72-3.11 1.67-3.11 1.67s10.555-4.32 11.52-1.195c.964 3.125-6.725 5.515-6.725 5.515s4.565-.23 4.075 1.93c-.49 2.16-11.03 5.27-12.47 5.99a20.491 20.491 0 0 1-5.285.965s6.48 2.635 6.48 3.6c0 .965 1.195 3.125-.965 3.6-2.16.475-2.39-1.685-6.235-2.88-3.845-1.195-6.955-.965-11.765-1.915a29.35 29.35 0 0 1-8.395-3.125l-17.035 4.565 3.6-14.17 8.87.49z" fill="#fff" stroke="#263238" stroke-linecap="round" stroke-linejoin="round"/><path d="m242.925 159.08-7.92 2.635m18.965 0-11.045 3.125m15.84 1.195-14.155 3.37m-11.045-3.845a12.48 12.48 0 0 1-8.64 4.075" stroke="#263238" stroke-linecap="round" stroke-linejoin="round"/><path d="m214.845 164.365-9.835-.72a64.549 64.549 0 0 0-2.16 7.92c-.965 4.55.23 12.96.23 12.96l5.76.72s3.37-13.205 6.005-20.88z" fill="#fff" stroke="#263238" stroke-linecap="round" stroke-linejoin="round"/><path d="M208.84 163.875a59.178 59.178 0 0 0-3.6 12.96 64.817 64.817 0 0 0 .245 13.45s-26.885-2.16-34.56-2.16c-7.675 0-11.765-12.73-6.725-18.49 5.04-5.76 12.96-7.675 19.93-6.955 6.969.72 24.71 1.195 24.71 1.195z" fill="#fff"/><path opacity=".2" d="M173.33 179.139h-11.045c.965 4.709 4.19 8.986 8.64 8.986 7.675 0 34.56 2.16 34.56 2.16a64.817 64.817 0 0 1-.245-13.45s-19.31 2.304-31.91 2.304z" fill="#000"/><path d="M208.84 163.875a59.178 59.178 0 0 0-3.6 12.96 64.817 64.817 0 0 0 .245 13.45s-26.885-2.16-34.56-2.16c-7.675 0-11.765-12.73-6.725-18.49 5.04-5.76 12.96-7.675 19.93-6.955 6.969.72 24.71 1.195 24.71 1.195z" stroke="#263238" stroke-linecap="round" stroke-linejoin="round"/><path d="M236.69 232.995s-34.128 27.216-45.519 36c-13.104 10.08-20.649 14.803-18.561 18.245 2.088 3.442 17.884 15.912 25.473 19.339 7.589 3.427 38.607-73.584 38.607-73.584z" fill="#fff"/><path opacity=".2" d="M236.69 232.995s-34.128 27.216-45.519 36c-13.104 10.08-20.649 14.803-18.561 18.245 2.088 3.442 17.884 15.912 25.473 19.339 7.589 3.427 38.607-73.584 38.607-73.584z" fill="#000"/><path d="M236.69 232.995s-34.128 27.216-45.519 36c-13.104 10.08-20.649 14.803-18.561 18.245 2.088 3.442 17.884 15.912 25.473 19.339 7.589 3.427 38.607-73.584 38.607-73.584z" stroke="#263238" stroke-linecap="round" stroke-linejoin="round"/><path d="M239.613 183.949s-5.011-9.101-8.179-12.255c-3.168-3.153-6.308-6.868-6.308-6.868l18.72-3.154s5.501 10.426 8.05 13.853a54.44 54.44 0 0 1 5.141 10.656l-17.424-2.232z" fill="#92E3A9" stroke="#263238" stroke-width=".5" stroke-linecap="round" stroke-linejoin="round"/><path d="M241.845 165.387 231.261 167s7.79 10.21 9.648 15.034l12.254 1.31s-8.539-15.739-11.318-17.957z" fill="#92E3A9" stroke="#263238" stroke-width=".5" stroke-linecap="round" stroke-linejoin="round"/><path d="M244.235 173.293c1.051 1.699.922 3.701-.302 4.449-1.224.749-3.067 0-4.119-1.699-1.051-1.699-.921-3.701.303-4.449 1.224-.749 3.067 0 4.118 1.699z" fill="#92E3A9" stroke="#263238" stroke-width=".5" stroke-linecap="round" stroke-linejoin="round"/><path d="M240.966 181.285s-3.988-9.605-6.768-13.09c-2.779-3.485-5.529-7.517-5.529-7.517l18.993-1.08s4.32 10.973 6.466 14.645c2.146 3.672 3.946 11.16 3.946 11.16l-17.108-4.118z" fill="#92E3A9" stroke="#263238" stroke-width=".5" stroke-linecap="round" stroke-linejoin="round"/><path d="m245.229 163.069-10.714.489s6.639 11.016 7.949 16.013l12.038 2.635s-6.753-16.646-9.273-19.137z" fill="#92E3A9" stroke="#263238" stroke-width=".5" stroke-linecap="round" stroke-linejoin="round"/><path d="M246.741 171.19c.849 1.815.504 3.773-.792 4.392-1.296.62-3.053-.345-3.903-2.145-.849-1.8-.518-3.773.778-4.392 1.296-.619 3.096.345 3.917 2.145z" fill="#92E3A9" stroke="#263238" stroke-width=".5" stroke-linecap="round" stroke-linejoin="round"/><path d="M246.755 184.093s-2.966-9.951-5.371-13.709c-2.405-3.758-4.709-8.05-4.709-8.05l18.994.907s3.153 11.362 4.91 15.236c1.757 3.873 2.751 11.52 2.751 11.52l-16.575-5.904z" fill="#92E3A9" stroke="#263238" stroke-width=".5" stroke-linecap="round" stroke-linejoin="round"/><path d="m252.875 166.424-10.685-.619s5.444 11.649 6.221 16.761l11.707 3.874s-4.996-17.237-7.243-20.016z" fill="#92E3A9" stroke="#263238" stroke-width=".5" stroke-linecap="round" stroke-linejoin="round"/><path d="M253.538 174.675c.662 1.887.115 3.802-1.239 4.32-1.353.519-2.995-.662-3.657-2.549-.663-1.886-.116-3.801 1.238-4.32 1.354-.518 2.995.634 3.658 2.549z" fill="#92E3A9" stroke="#263238" stroke-width=".5" stroke-linecap="round" stroke-linejoin="round"/><path d="M275.325 201.315a123.812 123.812 0 0 1-7.675-10.555c-1.21-2.405.95-4.795-2.88-8.885-3.831-4.09-6.725-6.48-7.445-8.15-.72-1.671-2.405-1.21-3.355.72-.951 1.929.72 5.04 2.16 5.76a8.777 8.777 0 0 1 2.635 2.39s-7.445-2.16-9.605-2.635c-2.16-.475-12.715-4.795-14.4-5.04-1.685-.245-5.27-.965-4.795 1.915.475 2.88 4.32 4.32 4.32 4.32s.475 6.48 3.125 10.325c2.649 3.845 7.2 5.285 10.8 7.2 3.6 1.915 12.96 3.355 12.96 3.355l6.955 9.36 7.2-10.08z" fill="#fff" stroke="#263238" stroke-linecap="round" stroke-linejoin="round"/><path d="M234.285 181.155s6.365 4.579 9.144 6.624a13.222 13.222 0 0 0 4.838 2.419m-13.003-4.089s3.715 3.153 5.947 5.011a18.375 18.375 0 0 0 6.495 2.779" stroke="#263238" stroke-linecap="round" stroke-linejoin="round"/><path d="m281.56 206.845-5.99-6.97-12.01 15.365 5.285 5.76 12.715-14.155z" fill="#fff" stroke="#263238" stroke-linecap="round" stroke-linejoin="round"/><path d="M308.92 173.955s25.2 3.845 28.57 5.04c3.369 1.195 4.55 6.005 1.67 15.61-2.88 9.604-15.595 62.395-18.23 65.275-2.636 2.88-13.205 1.44-25.445-7.445s-29.045-30.47-29.045-30.47l14.89-16.56 23.27 19.915 6.25-29.765" fill="#fff"/><path opacity=".2" d="M320.93 259.88c2.635-2.88 15.35-55.685 18.23-65.275 2.88-9.591 1.685-14.4-1.67-15.61l-.274-.086c-2.246 8.64-12.312 47.52-13.608 57.427-1.44 11.145-4.853 14.544-23.27 7.2-14.804-5.847-28.671-17.64-33.538-22.047l-.36.404s16.805 21.6 29.045 30.47c12.24 8.87 22.795 10.397 25.445 7.517z" fill="#000"/><path d="M308.92 173.955s25.2 3.845 28.57 5.04c3.369 1.195 4.55 6.005 1.67 15.61-2.88 9.604-15.595 62.395-18.23 65.275-2.636 2.88-13.205 1.44-25.445-7.445s-29.045-30.47-29.045-30.47l14.89-16.56 23.27 19.915 6.25-29.765" stroke="#263238" stroke-linecap="round" stroke-linejoin="round"/><path d="M304.6 225.32s12.73 8.165 15.12 8.64l-15.12-8.64z" fill="#fff"/><path d="M304.6 225.32s12.73 8.165 15.12 8.64" stroke="#263238" stroke-linecap="round" stroke-linejoin="round"/><path d="m163.667 112.539-6.537 15.898 30.974 6.451 5.674-14.486-30.111-7.863z" fill="#92E3A9" stroke="#263238" stroke-width=".5" stroke-linecap="round" stroke-linejoin="round"/><path d="m167.123 115.938-4.593 11.16 21.758 4.536 3.974-10.181-21.139-5.515z" fill="#92E3A9" stroke="#263238" stroke-width=".5" stroke-linecap="round" stroke-linejoin="round"/><path d="M179.55 122.115a3.876 3.876 0 0 1-.617 4.319 3.871 3.871 0 0 1-6.042-.403 3.876 3.876 0 0 1 1.735-5.802 3.701 3.701 0 0 1 2.855-.082 3.7 3.7 0 0 1 2.069 1.968zm-63.043 25.042 14.674 10.382 21.542-21.211-13.521-9.23-22.695 20.059z" fill="#92E3A9" stroke="#263238" stroke-width=".5" stroke-linecap="round" stroke-linejoin="round"/><path d="m121.893 145.702 10.31 7.301 15.12-14.904-9.489-6.48-15.941 14.083z" fill="#92E3A9" stroke="#263238" stroke-width=".5" stroke-linecap="round" stroke-linejoin="round"/><path d="M134.522 138.43c2.39.072 4.32 1.556 4.32 3.327s-1.988 3.139-4.32 3.067c-2.333-.072-4.32-1.555-4.248-3.326.072-1.772 1.886-3.14 4.248-3.068zm-50.89 46.282 17.712 3.053 10.31-28.397-16.17-2.534-11.852 27.878z" fill="#92E3A9" stroke="#263238" stroke-width=".5" stroke-linecap="round" stroke-linejoin="round"/><path d="m87.866 181.083 12.441 2.146 7.258-19.944-11.362-1.771-8.337 19.569z" fill="#92E3A9" stroke="#263238" stroke-width=".5" stroke-linecap="round" stroke-linejoin="round"/><path d="M96.16 169.088c2.174-.965 4.536-.432 5.27 1.166.735 1.599-.446 3.701-2.635 4.652-2.189.95-4.536.432-5.27-1.167-.735-1.598.432-3.701 2.635-4.651zM82.178 75.762l11.318 13.953 26.467-14.573-10.512-12.556-27.273 13.176z" fill="#92E3A9" stroke="#263238" stroke-width=".5" stroke-linecap="round" stroke-linejoin="round"/><path d="m87.75 75.82 7.95 9.806 18.59-10.239-7.373-8.813L87.75 75.82z" fill="#92E3A9" stroke="#263238" stroke-width=".5" stroke-linecap="round" stroke-linejoin="round"/><path d="M101.92 72.234c2.275.72 3.701 2.664 3.197 4.32-.504 1.656-2.765 2.476-5.04 1.756s-3.701-2.664-3.197-4.32c.504-1.656 2.722-2.476 5.04-1.756zm11.75 203.731 16.46-6.552-12.312-27.576-14.847 6.177 10.699 27.951z" fill="#92E3A9" stroke="#263238" stroke-width=".5" stroke-linecap="round" stroke-linejoin="round"/><path d="m114.448 270.968 11.563-4.608-8.654-19.368-10.426 4.349 7.517 19.627z" fill="#92E3A9" stroke="#263238" stroke-width=".5" stroke-linecap="round" stroke-linejoin="round"/><path d="M118.171 261.354c1.456-1.578 1.471-3.933.033-5.26-1.438-1.326-3.784-1.123-5.24.456-1.456 1.578-1.471 3.932-.033 5.259 1.438 1.327 3.784 1.123 5.24-.455zM220.835 86.662l17.698-.907-2.779-30.067-16.042 1.066 1.123 29.908z" fill="#92E3A9" stroke="#263238" stroke-width=".5" stroke-linecap="round" stroke-linejoin="round"/><path d="m223.182 82.184 12.428-.634-1.944-21.124-11.276.748.792 21.01z" fill="#92E3A9" stroke="#263238" stroke-width=".5" stroke-linecap="round" stroke-linejoin="round"/><path d="M225.616 68.605a3.946 3.946 0 0 1 5.386 0 3.536 3.536 0 0 1 .9 2.653 3.52 3.52 0 0 1-1.318 2.473 3.917 3.917 0 0 1-5.371 0 3.548 3.548 0 0 1-.504-4.022c.224-.426.533-.802.907-1.104zm141.077 88.229 4.133 17.236 29.059-8.251-4.003-15.566-29.189 6.581z" fill="#92E3A9" stroke="#263238" stroke-width=".5" stroke-linecap="round" stroke-linejoin="round"/><path d="m371.531 158.317 2.895 12.11 20.419-5.803-2.808-10.93-20.506 4.623z" fill="#92E3A9" stroke="#263238" stroke-width=".5" stroke-linecap="round" stroke-linejoin="round"/><path d="M385.326 158.23a3.917 3.917 0 0 1 .98 5.285 3.526 3.526 0 0 1-5.112.547 3.958 3.958 0 0 1-.994-5.299 3.55 3.55 0 0 1 2.449-1.366 3.574 3.574 0 0 1 2.677.833zm-18.259-38.203 17.698.864.23-30.211-16.07-.518-1.858 29.865z" fill="#92E3A9" stroke="#263238" stroke-width=".5" stroke-linecap="round" stroke-linejoin="round"/><path d="m369.846 115.794 12.428.619.172-21.226-11.289-.36-1.311 20.967z" fill="#92E3A9" stroke="#263238" stroke-width=".5" stroke-linecap="round" stroke-linejoin="round"/><path d="M373.634 102.531a3.916 3.916 0 0 1 5.342.533 3.534 3.534 0 0 1 .639 2.734 3.54 3.54 0 0 1-1.561 2.335 3.916 3.916 0 0 1-5.342-.533 3.534 3.534 0 0 1-.638-2.734 3.516 3.516 0 0 1 1.56-2.335zm18.619 221.357 17.683.864.23-30.197-16.056-.533-1.857 29.866z" fill="#92E3A9" stroke="#263238" stroke-width=".5" stroke-linecap="round" stroke-linejoin="round"/><path d="m395.032 319.669 12.427.605.159-21.212-11.29-.374-1.296 20.981z" fill="#92E3A9" stroke="#263238" stroke-width=".5" stroke-linecap="round" stroke-linejoin="round"/><path d="M398.805 306.406a3.933 3.933 0 0 1 5.357.533 3.524 3.524 0 0 1-.922 5.055 3.944 3.944 0 0 1-5.357-.519 3.54 3.54 0 0 1 .922-5.069zm22.449-26.798 17.684.864.23-30.211-16.056-.519-1.858 29.866z" fill="#92E3A9" stroke="#263238" stroke-width=".5" stroke-linecap="round" stroke-linejoin="round"/><path d="m424.034 275.389 12.427.605.158-21.226-11.289-.36-1.296 20.981z" fill="#92E3A9" stroke="#263238" stroke-width=".5" stroke-linecap="round" stroke-linejoin="round"/><path d="M427.806 262.126a3.946 3.946 0 0 1 5.357.519c.286.388.49.831.598 1.301a3.53 3.53 0 0 1-.502 2.76 3.538 3.538 0 0 1-1.017 1.008 3.934 3.934 0 0 1-5.357-.533 3.534 3.534 0 0 1-.631-2.726 3.517 3.517 0 0 1 1.552-2.329zm-117.633 50.098 13.262 11.75 19.095-23.4-12.197-10.468-20.16 22.118z" fill="#92E3A9" stroke="#263238" stroke-width=".5" stroke-linecap="round" stroke-linejoin="round"/><path d="m314.982 310.669 9.317 8.265 13.421-16.444-8.568-7.359-14.17 15.538z" fill="#92E3A9" stroke="#263238" stroke-width=".5" stroke-linecap="round" stroke-linejoin="round"/><path d="M326.243 302.691a3.949 3.949 0 0 1 3.845 3.773 3.526 3.526 0 0 1-2.464 3.225c-.46.145-.944.194-1.424.145a3.92 3.92 0 0 1-3.845-3.759 3.54 3.54 0 0 1 2.463-3.233c.46-.147.945-.198 1.425-.151zM24.923 151.477l13.263 11.75 19.094-23.4-12.197-10.469-20.16 22.119z" fill="#92E3A9" stroke="#263238" stroke-width=".5" stroke-linecap="round" stroke-linejoin="round"/><path d="m29.733 149.922 9.317 8.265 13.42-16.445-8.582-7.358-14.155 15.538z" fill="#92E3A9" stroke="#263238" stroke-width=".5" stroke-linecap="round" stroke-linejoin="round"/><path d="M40.994 141.944a3.949 3.949 0 0 1 3.844 3.773 3.53 3.53 0 0 1-3.888 3.369 3.917 3.917 0 0 1-3.83-3.686 3.546 3.546 0 0 1 2.436-3.295 3.536 3.536 0 0 1 1.438-.161zm16.617 192.96 17.568 2.29 2.693-30.082-15.984-1.829-4.277 29.621z" fill="#92E3A9" stroke="#263238" stroke-width=".5" stroke-linecap="round" stroke-linejoin="round"/><path d="m60.722 330.915 12.355 1.613 1.872-21.125-11.218-1.296-3.01 20.808z" fill="#92E3A9" stroke="#263238" stroke-width=".5" stroke-linecap="round" stroke-linejoin="round"/><path d="M65.574 317.998a3.93 3.93 0 0 1 5.3.965 3.54 3.54 0 0 1-1.34 4.983 3.935 3.935 0 0 1-5.284-.965 3.551 3.551 0 0 1-.413-2.777 3.538 3.538 0 0 1 1.737-2.206zm29.406 86.746 17.567 2.304 2.679-30.082-15.97-1.828-4.277 29.606z" fill="#92E3A9" stroke="#263238" stroke-width=".5" stroke-linecap="round" stroke-linejoin="round"/><path d="m98.09 400.77 12.34 1.612 1.887-21.139-11.218-1.281-3.01 20.808z" fill="#92E3A9" stroke="#263238" stroke-width=".5" stroke-linecap="round" stroke-linejoin="round"/><path d="M102.942 387.853a3.916 3.916 0 0 1 5.285.965 3.533 3.533 0 0 1 .412 2.77 3.52 3.52 0 0 1-1.737 2.198 3.932 3.932 0 0 1-5.299-.965 3.556 3.556 0 0 1-.399-2.772 3.531 3.531 0 0 1 1.738-2.196zm231.912 27.072 17.568 2.289 2.693-30.081-15.969-1.829-4.292 29.621z" fill="#92E3A9" stroke="#263238" stroke-width=".5" stroke-linecap="round" stroke-linejoin="round"/><path d="m337.979 410.936 12.341 1.613 1.886-21.125-11.217-1.296-3.01 20.808z" fill="#92E3A9" stroke="#263238" stroke-width=".5" stroke-linecap="round" stroke-linejoin="round"/><path d="M342.818 398.019a3.931 3.931 0 0 1 5.299.965 3.545 3.545 0 0 1-1.325 4.982 3.956 3.956 0 0 1-5.299-.964 3.54 3.54 0 0 1 .228-4.06 3.548 3.548 0 0 1 1.097-.923zm6.379-172.685 4.133 17.237 29.044-8.251-3.988-15.566-29.189 6.58z" fill="#92E3A9" stroke="#263238" stroke-width=".5" stroke-linecap="round" stroke-linejoin="round"/><path d="m354.021 226.818 2.909 12.11 20.404-5.789-2.808-10.944-20.505 4.623z" fill="#92E3A9" stroke="#263238" stroke-width=".5" stroke-linecap="round" stroke-linejoin="round"/><path d="M367.816 226.731a3.946 3.946 0 0 1 .994 5.299 3.568 3.568 0 0 1-2.449 1.366 3.56 3.56 0 0 1-2.678-.833 3.93 3.93 0 0 1-.979-5.299 3.56 3.56 0 0 1 1.08-.934 3.557 3.557 0 0 1 2.782-.29c.46.144.885.379 1.25.691zM129.078 335.797l4.133 17.237 29.059-8.252-4.003-15.566-29.189 6.581z" fill="#92E3A9" stroke="#263238" stroke-width=".5" stroke-linecap="round" stroke-linejoin="round"/><path d="m133.917 337.28 2.894 12.11 20.419-5.788-2.808-10.944-20.505 4.622z" fill="#92E3A9" stroke="#263238" stroke-width=".5" stroke-linecap="round" stroke-linejoin="round"/><path d="M147.712 337.194a3.942 3.942 0 0 1 .979 5.299 3.542 3.542 0 0 1-5.112.533 3.93 3.93 0 0 1-.993-5.285 3.54 3.54 0 0 1 5.126-.547zM209.79 124.88l-11.98 12.326 26.352 17.511 10.641-11.347-25.013-18.49z" fill="#92E3A9" stroke="#263238" stroke-width=".5" stroke-linecap="round" stroke-linejoin="round"/><path d="m211.72 129.315-8.41 8.669 18.519 12.298 7.473-7.978-17.582-12.989z" fill="#92E3A9" stroke="#263238" stroke-width=".5" stroke-linecap="round" stroke-linejoin="round"/><path d="M217.106 143.24c2.131 0 3.859-1.599 3.859-3.571 0-1.973-1.728-3.571-3.859-3.571-2.132 0-3.86 1.598-3.86 3.571 0 1.972 1.728 3.571 3.86 3.571zm-32.919-7.301-6.537 15.898 30.974 6.451 5.674-14.486-30.111-7.863z" fill="#92E3A9" stroke="#263238" stroke-width=".5" stroke-linecap="round" stroke-linejoin="round"/><path d="m187.643 139.338-4.593 11.16 21.758 4.536 3.974-10.181-21.139-5.515z" fill="#92E3A9" stroke="#263238" stroke-width=".5" stroke-linecap="round" stroke-linejoin="round"/><path d="M200.07 145.515a3.874 3.874 0 0 1-2.585 5.476 3.88 3.88 0 0 1-4.074-1.56 3.876 3.876 0 0 1 1.735-5.802 3.701 3.701 0 0 1 2.855-.082 3.7 3.7 0 0 1 2.069 1.968z" fill="#92E3A9" stroke="#263238" stroke-width=".5" stroke-linecap="round" stroke-linejoin="round"/></g><defs><clipPath id="money-man_svg__a"><path fill="#fff" d="M0 0h519v541H0z"/></clipPath></defs></svg>